<svg width="32" height="32" viewBox="0 0 32 32" fill="none" xmlns="http://www.w3.org/2000/svg">
<path d="M23.1342 21.3696L20.2329 18.4683C21.1163 17.1459 21.4763 15.5421 21.2427 13.969C21.0092 12.3959 20.1989 10.966 18.9694 9.95722C17.7399 8.94849 16.1792 8.43315 14.5907 8.51143C13.0023 8.58972 11.4998 9.25603 10.3755 10.3808C9.25116 11.5055 8.58538 13.0082 8.50766 14.5967C8.42994 16.1851 8.94583 17.7457 9.955 18.9748C10.9642 20.2039 12.3944 21.0137 13.9676 21.2467C15.5408 21.4797 17.1444 21.1192 18.4665 20.2353L21.3678 23.136C21.6041 23.3665 21.921 23.4954 22.251 23.4954C22.5811 23.4954 22.898 23.3665 23.1342 23.136C23.3684 22.9018 23.5 22.5841 23.5 22.2528C23.5 21.9216 23.3684 21.6039 23.1342 21.3696ZM14.9118 10.3851C15.8074 10.3851 16.683 10.6507 17.4277 11.1483C18.1724 11.6459 18.7528 12.3531 19.0955 13.1806C19.4383 14.0081 19.528 14.9186 19.3532 15.797C19.1785 16.6755 18.7472 17.4824 18.1139 18.1157C17.4806 18.749 16.6737 19.1803 15.7952 19.355C14.9168 19.5298 14.0063 19.4401 13.1788 19.0973C12.3513 18.7546 11.6441 18.1741 11.1465 17.4294C10.6489 16.6847 10.3833 15.8092 10.3833 14.9136C10.3846 13.7129 10.8621 12.5619 11.7111 11.7129C12.5601 10.8639 13.7112 10.3864 14.9118 10.3851Z" fill="#005B56"/>
<rect x="0.5" y="0.5" width="31" height="31" rx="15.5" stroke="#005B56"/>
</svg>
