<svg width="32" height="32" viewBox="0 0 32 32" fill="none" xmlns="http://www.w3.org/2000/svg">
<path fill-rule="evenodd" clip-rule="evenodd" d="M21.2971 8.50732C21.8779 8.50732 22.4363 8.73097 22.8565 9.13184C23.2686 9.54551 23.5 10.1057 23.5 10.6896C23.5 11.2736 23.2686 11.8337 22.8565 12.2474L22.4101 12.6957C22.3514 12.7543 22.2719 12.7872 22.189 12.7872C22.1061 12.7872 22.0266 12.7543 21.968 12.6957L19.2927 10.0197C19.234 9.96105 19.2011 9.88155 19.2011 9.79865C19.2011 9.71576 19.234 9.63626 19.2927 9.57763L19.7378 9.13184C20.158 8.73097 20.7164 8.50732 21.2971 8.50732ZM18.6169 10.6912C18.5573 10.6347 18.4782 10.6031 18.3959 10.6031C18.3137 10.6031 18.2346 10.6347 18.1749 10.6912L11.0391 17.827C10.9805 17.8856 10.9476 17.9651 10.9476 18.048C10.9476 18.1309 10.9805 18.2104 11.0391 18.269L13.7151 20.945C13.7737 21.0036 13.8532 21.0366 13.9361 21.0366C14.019 21.0366 14.0985 21.0036 14.1572 20.945L21.2929 13.8105C21.3515 13.7519 21.3845 13.6724 21.3845 13.5895C21.3845 13.5066 21.3515 13.4271 21.2929 13.3685L18.6169 10.6912ZM10.3719 18.9437C10.334 18.9061 10.2871 18.8788 10.2357 18.8644C10.1843 18.85 10.13 18.849 10.0781 18.8616C10.0262 18.8741 9.97837 18.8997 9.93917 18.936C9.89998 18.9723 9.87073 19.018 9.85422 19.0688L8.51622 23.0828C8.49776 23.1378 8.495 23.197 8.50825 23.2535C8.5215 23.31 8.55024 23.3618 8.59125 23.4029C8.63262 23.4435 8.68432 23.4721 8.74075 23.4854C8.79718 23.4987 8.85618 23.4964 8.91137 23.4785L12.9254 22.1412C12.9763 22.1247 13.0221 22.0955 13.0585 22.0562C13.0948 22.017 13.1205 21.9691 13.1331 21.917C13.1456 21.865 13.1446 21.8107 13.1301 21.7592C13.1157 21.7077 13.0882 21.6607 13.0504 21.6229L10.3719 18.9437Z" fill="#005B56"/>
<rect x="0.5" y="0.5" width="31" height="31" rx="15.5" stroke="#005B56"/>
</svg>
